<svg xmlns="http://www.w3.org/2000/svg" xmlns:xlink="http://www.w3.org/1999/xlink" viewBox="0 0 671.19 131.42"><defs><style>.cls-1,.cls-2,.cls-3,.cls-4,.cls-6{fill:#fff;}.cls-2,.cls-3,.cls-4,.cls-6{stroke-miterlimit:10;}.cls-2{stroke:url(#radial-gradient);}.cls-3,.cls-4,.cls-6{stroke-width:4px;}.cls-3{stroke:url(#radial-gradient-2);}.cls-4{stroke:url(#radial-gradient-3);}.cls-5{fill:url(#radial-gradient-4);}.cls-6{stroke:url(#radial-gradient-5);}.cls-7{font-size:98.97px;font-family:VladimirScript, Vladimir Script;}</style><radialGradient id="radial-gradient" cx="536.16" cy="43.44" r="15.21" gradientUnits="userSpaceOnUse"><stop offset="0"/><stop offset="0.12" stop-color="#162d20"/><stop offset="0.29" stop-color="#306247"/><stop offset="0.45" stop-color="#468f68"/><stop offset="0.61" stop-color="#57b281"/><stop offset="0.76" stop-color="#63cb93"/><stop offset="0.89" stop-color="#6ada9e"/><stop offset="1" stop-color="#6ddfa2"/></radialGradient><radialGradient id="radial-gradient-2" cx="633.12" cy="78.14" r="46.3" gradientUnits="userSpaceOnUse"><stop offset="0" stop-color="#6ddfa2"/><stop offset="1" stop-color="#6ddfa2"/></radialGradient><radialGradient id="radial-gradient-3" cx="556.76" cy="78.14" r="46.51" xlink:href="#radial-gradient-2"/><radialGradient id="radial-gradient-4" cx="614" cy="238" r="60.07" xlink:href="#radial-gradient-2"/><radialGradient id="radial-gradient-5" cx="595.19" cy="81.92" r="32.91" xlink:href="#radial-gradient-2"/></defs><title>logo-concept</title><g id="Layer_1" data-name="Layer 1"><polygon class="cls-1" points="665.19 27.42 641.19 36.42 646.19 59.42 667.19 49.42 665.19 27.42"/><polygon class="cls-2" points="547.19 27.42 523.19 36.42 528.19 59.42 549.19 49.42 547.19 27.42"/><polygon class="cls-1" points="525.19 27.42 549.19 36.42 544.19 59.42 523.19 49.42 525.19 27.42"/><polyline class="cls-3" points="661.19 29.42 669.19 27.42 669.19 124.42 595.19 129.42"/><polyline class="cls-4" points="528.19 29.42 520.19 27.42 520.19 124.42 595.19 129.42"/><polygon class="cls-1" points="658.19 115.42 595.19 131.42 532.19 115.42 532.19 17.42 595.19 33.42 658.19 17.42 658.19 115.42"/><path class="cls-5" d="M673,186.14v89.75l-59,15-59-15V186.14l58,14.74,1,.25,1-.25,58-14.74m4-5.14-63,16-63-16v98l63,16,63-16V181Z" transform="translate(-18.81 -163.58)"/><line class="cls-6" x1="595.19" y1="128.42" x2="595.19" y2="35.42"/><text class="cls-7" transform="translate(0 84.22)">Boghandleren</text></g></svg>