<?xml version="1.0" encoding="utf-8"?>
<!-- Generator: Adobe Illustrator 23.0.3, SVG Export Plug-In . SVG Version: 6.00 Build 0)  -->
<svg version="1.1" xmlns="http://www.w3.org/2000/svg" xmlns:xlink="http://www.w3.org/1999/xlink" x="0px" y="0px"
	 viewBox="0 0 500 500" style="enable-background:new 0 0 500 500;" xml:space="preserve">
<style type="text/css">
	.st0{display:none;fill:url(#SVGID_1_);}
	.st1{fill:#FFFFFF;}
	.st2{fill:#FFFFFF;stroke:url(#SVGID_2_);stroke-miterlimit:10;}
	.st3{fill:#FFFFFF;stroke:url(#SVGID_3_);stroke-width:4;stroke-miterlimit:10;}
	.st4{fill:#FFFFFF;stroke:url(#SVGID_4_);stroke-width:4;stroke-miterlimit:10;}
	.st5{fill:url(#SVGID_5_);}
	.st6{fill:#FFFFFF;stroke:url(#SVGID_6_);stroke-width:4;stroke-miterlimit:10;}
</style>
<g id="Layer_2">
</g>
<g id="Layer_1">
	
		<radialGradient id="SVGID_1_" cx="250" cy="233" r="207.2532" gradientTransform="matrix(1 0 0 1.979 0 -228.1168)" gradientUnits="userSpaceOnUse">
		<stop  offset="0" style="stop-color:#FFFFFF"/>
		<stop  offset="6.258638e-04" style="stop-color:#FFFFFF"/>
		<stop  offset="0.2752" style="stop-color:#F2F1E6"/>
		<stop  offset="0.5266" style="stop-color:#EBE9D7"/>
		<stop  offset="0.7319" style="stop-color:#E8E6D2"/>
	</radialGradient>
	<rect x="43" y="84" class="st0" width="414" height="298"/>
	<polygon class="st1" points="469.5,65.3 394.6,93.4 410.2,165.2 475.8,134 	"/>
	<radialGradient id="SVGID_2_" cx="66.9074" cy="115.2671" r="46.1306" gradientUnits="userSpaceOnUse">
		<stop  offset="0" style="stop-color:#000000"/>
		<stop  offset="0.1235" style="stop-color:#162D20"/>
		<stop  offset="0.2905" style="stop-color:#306247"/>
		<stop  offset="0.454" style="stop-color:#468F68"/>
		<stop  offset="0.6101" style="stop-color:#57B281"/>
		<stop  offset="0.7569" style="stop-color:#63CB93"/>
		<stop  offset="0.8908" style="stop-color:#6ADA9E"/>
		<stop  offset="1" style="stop-color:#6DDFA2"/>
	</radialGradient>
	<polygon class="st2" points="101.3,65.3 26.4,93.4 42,165.2 107.5,134 	"/>
	<polygon class="st1" points="32.6,65.3 107.5,93.4 91.9,165.2 26.4,134 	"/>
	<radialGradient id="SVGID_3_" cx="367.4628" cy="224.1993" r="140.7895" gradientUnits="userSpaceOnUse">
		<stop  offset="0" style="stop-color:#6DDFA2"/>
		<stop  offset="1" style="stop-color:#6DDFA2"/>
	</radialGradient>
	<polyline class="st3" points="457,71.6 482,65.3 482,368 251.1,383.6 	"/>
	<radialGradient id="SVGID_4_" cx="133.0967" cy="224.1994" r="141.4378" gradientUnits="userSpaceOnUse">
		<stop  offset="0" style="stop-color:#6DDFA2"/>
		<stop  offset="1" style="stop-color:#6DDFA2"/>
	</radialGradient>
	<polyline class="st4" points="42,71.6 17,65.3 17,368 251.1,383.6 	"/>
	<g>
		<polygon class="st1" points="447.7,340 251.1,389.9 54.4,340 54.4,34.1 251.1,84 447.7,34.1 		"/>
		<radialGradient id="SVGID_5_" cx="251.0604" cy="212" r="187.4822" gradientUnits="userSpaceOnUse">
			<stop  offset="0" style="stop-color:#6DDFA2"/>
			<stop  offset="1" style="stop-color:#6DDFA2"/>
		</radialGradient>
		<path class="st5" d="M58.4,39.3l191.6,48.7l1,0.3l1-0.3l191.6-48.7v297.6l-192.6,48.9L58.4,336.8V39.3 M447.7,34.1L251.1,84
			L54.4,34.1V340l196.6,49.9L447.7,340V34.1L447.7,34.1z"/>
	</g>
	<radialGradient id="SVGID_6_" cx="251.0604" cy="235.406" r="102.6233" gradientUnits="userSpaceOnUse">
		<stop  offset="0" style="stop-color:#6DDFA2"/>
		<stop  offset="1" style="stop-color:#6DDFA2"/>
	</radialGradient>
	<line class="st6" x1="251.1" y1="380.5" x2="251.1" y2="90.3"/>
</g>
</svg>
